<svg width="42" height="42" viewBox="0 0 42 42" fill="none" xmlns="http://www.w3.org/2000/svg">
<path d="M14.0812 21C14.0812 17.18 17.179 14.0825 21.0013 14.0825C24.8236 14.0825 27.923 17.18 27.923 21C27.923 24.82 24.8236 27.9176 21.0013 27.9176C17.179 27.9176 14.0812 24.82 14.0812 21ZM10.3395 21C10.3395 26.885 15.1127 31.6554 21.0013 31.6554C26.8898 31.6554 31.663 26.885 31.663 21C31.663 15.115 26.8898 10.3446 21.0013 10.3446C15.1127 10.3446 10.3395 15.115 10.3395 21ZM29.5935 9.92215C29.5933 10.4146 29.7392 10.8961 30.0129 11.3058C30.2865 11.7154 30.6755 12.0347 31.1307 12.2233C31.5859 12.412 32.0869 12.4615 32.5702 12.3656C33.0536 12.2697 33.4977 12.0327 33.8463 11.6846C34.1949 11.3365 34.4323 10.8929 34.5287 10.4099C34.625 9.92692 34.5759 9.42622 34.3875 8.97114C34.1991 8.51605 33.8799 8.12702 33.4702 7.85324C33.0606 7.57946 32.5789 7.43322 32.0861 7.43302H32.0851C31.4246 7.43333 30.7911 7.69564 30.324 8.16235C29.8568 8.62906 29.5941 9.26199 29.5935 9.92215V9.92215ZM12.6128 37.8909C10.5885 37.7987 9.48816 37.4617 8.75696 37.177C7.78755 36.7999 7.09588 36.3506 6.36866 35.6248C5.64144 34.8991 5.19129 34.2085 4.81555 33.2396C4.53051 32.5092 4.19332 31.4092 4.10129 29.3861C4.00063 27.1988 3.98053 26.5417 3.98053 21.0002C3.98053 15.4587 4.00229 14.8034 4.10129 12.6143C4.19348 10.5912 4.53317 9.49335 4.81555 8.76076C5.19295 7.79193 5.64244 7.10068 6.36866 6.37389C7.09488 5.64711 7.78589 5.19723 8.75696 4.82172C9.48783 4.53685 10.5885 4.19985 12.6128 4.10788C14.8015 4.00728 15.4589 3.98719 21.0013 3.98719C26.5436 3.98719 27.2017 4.00894 29.3922 4.10788C31.4165 4.20002 32.515 4.5395 33.248 4.82172C34.2174 5.19723 34.9091 5.6481 35.6363 6.37389C36.3636 7.09968 36.8121 7.79193 37.1894 8.76076C37.4745 9.49119 37.8117 10.5912 37.9037 12.6143C38.0044 14.8034 38.0245 15.4587 38.0245 21.0002C38.0245 26.5417 38.0044 27.1969 37.9037 29.3861C37.8115 31.4092 37.4727 32.5089 37.1894 33.2396C36.8121 34.2085 36.3626 34.8997 35.6363 35.6248C34.9101 36.35 34.2174 36.7999 33.248 37.177C32.5172 37.4619 31.4165 37.7989 29.3922 37.8909C27.2036 37.9915 26.5461 38.0115 21.0013 38.0115C15.4564 38.0115 14.8008 37.9915 12.6128 37.8909V37.8909ZM12.4409 0.374692C10.2305 0.475292 8.72008 0.825569 7.40102 1.33853C6.03495 1.86827 4.87851 2.57895 3.7229 3.73204C2.56729 4.88513 1.85801 6.04271 1.32796 7.40796C0.814685 8.72706 0.464198 10.2357 0.363536 12.4448C0.261214 14.6574 0.237793 15.3647 0.237793 21C0.237793 26.6353 0.261214 27.3427 0.363536 29.5553C0.464198 31.7645 0.814685 33.273 1.32796 34.5921C1.85801 35.9565 2.56745 37.1154 3.7229 38.268C4.87834 39.4206 6.03495 40.1303 7.40102 40.6615C8.72257 41.1745 10.2305 41.5248 12.4409 41.6254C14.6559 41.726 15.3626 41.751 21.0013 41.751C26.6399 41.751 27.3477 41.7276 29.5616 41.6254C31.7722 41.5248 33.2816 41.1745 34.6015 40.6615C35.9667 40.1303 37.124 39.4211 38.2796 38.268C39.4352 37.1149 40.143 35.9565 40.6746 34.5921C41.1878 33.273 41.54 31.7643 41.639 29.5553C41.7396 27.341 41.7631 26.6353 41.7631 21C41.7631 15.3647 41.7396 14.6574 41.639 12.4448C41.5383 10.2356 41.1878 8.72623 40.6746 7.40796C40.143 6.04354 39.4334 4.88696 38.2796 3.73204C37.1258 2.57712 35.9667 1.86827 34.6032 1.33853C33.2816 0.825569 31.772 0.473632 29.5633 0.374692C27.3494 0.274091 26.6416 0.249023 21.0029 0.249023C15.3642 0.249023 14.6559 0.272431 12.4409 0.374692Z" fill="url(#paint0_radial_1824_15)"/>
<path d="M14.0812 21C14.0812 17.18 17.179 14.0825 21.0013 14.0825C24.8236 14.0825 27.923 17.18 27.923 21C27.923 24.82 24.8236 27.9176 21.0013 27.9176C17.179 27.9176 14.0812 24.82 14.0812 21ZM10.3395 21C10.3395 26.885 15.1127 31.6554 21.0013 31.6554C26.8898 31.6554 31.663 26.885 31.663 21C31.663 15.115 26.8898 10.3446 21.0013 10.3446C15.1127 10.3446 10.3395 15.115 10.3395 21ZM29.5935 9.92215C29.5933 10.4146 29.7392 10.8961 30.0129 11.3058C30.2865 11.7154 30.6755 12.0347 31.1307 12.2233C31.5859 12.412 32.0869 12.4615 32.5702 12.3656C33.0536 12.2697 33.4977 12.0327 33.8463 11.6846C34.1949 11.3365 34.4323 10.8929 34.5287 10.4099C34.625 9.92692 34.5759 9.42622 34.3875 8.97114C34.1991 8.51605 33.8799 8.12702 33.4702 7.85324C33.0606 7.57946 32.5789 7.43322 32.0861 7.43302H32.0851C31.4246 7.43333 30.7911 7.69564 30.324 8.16235C29.8568 8.62906 29.5941 9.26199 29.5935 9.92215V9.92215ZM12.6128 37.8909C10.5885 37.7987 9.48816 37.4617 8.75696 37.177C7.78755 36.7999 7.09588 36.3506 6.36866 35.6248C5.64144 34.8991 5.19129 34.2085 4.81555 33.2396C4.53051 32.5092 4.19332 31.4092 4.10129 29.3861C4.00063 27.1988 3.98053 26.5417 3.98053 21.0002C3.98053 15.4587 4.00229 14.8034 4.10129 12.6143C4.19348 10.5912 4.53317 9.49335 4.81555 8.76076C5.19295 7.79193 5.64244 7.10068 6.36866 6.37389C7.09488 5.64711 7.78589 5.19723 8.75696 4.82172C9.48783 4.53685 10.5885 4.19985 12.6128 4.10788C14.8015 4.00728 15.4589 3.98719 21.0013 3.98719C26.5436 3.98719 27.2017 4.00894 29.3922 4.10788C31.4165 4.20002 32.515 4.5395 33.248 4.82172C34.2174 5.19723 34.9091 5.6481 35.6363 6.37389C36.3636 7.09968 36.8121 7.79193 37.1894 8.76076C37.4745 9.49119 37.8117 10.5912 37.9037 12.6143C38.0044 14.8034 38.0245 15.4587 38.0245 21.0002C38.0245 26.5417 38.0044 27.1969 37.9037 29.3861C37.8115 31.4092 37.4727 32.5089 37.1894 33.2396C36.8121 34.2085 36.3626 34.8997 35.6363 35.6248C34.9101 36.35 34.2174 36.7999 33.248 37.177C32.5172 37.4619 31.4165 37.7989 29.3922 37.8909C27.2036 37.9915 26.5461 38.0115 21.0013 38.0115C15.4564 38.0115 14.8008 37.9915 12.6128 37.8909V37.8909ZM12.4409 0.374692C10.2305 0.475292 8.72008 0.825569 7.40102 1.33853C6.03495 1.86827 4.87851 2.57895 3.7229 3.73204C2.56729 4.88513 1.85801 6.04271 1.32796 7.40796C0.814685 8.72706 0.464198 10.2357 0.363536 12.4448C0.261214 14.6574 0.237793 15.3647 0.237793 21C0.237793 26.6353 0.261214 27.3427 0.363536 29.5553C0.464198 31.7645 0.814685 33.273 1.32796 34.5921C1.85801 35.9565 2.56745 37.1154 3.7229 38.268C4.87834 39.4206 6.03495 40.1303 7.40102 40.6615C8.72257 41.1745 10.2305 41.5248 12.4409 41.6254C14.6559 41.726 15.3626 41.751 21.0013 41.751C26.6399 41.751 27.3477 41.7276 29.5616 41.6254C31.7722 41.5248 33.2816 41.1745 34.6015 40.6615C35.9667 40.1303 37.124 39.4211 38.2796 38.268C39.4352 37.1149 40.143 35.9565 40.6746 34.5921C41.1878 33.273 41.54 31.7643 41.639 29.5553C41.7396 27.341 41.7631 26.6353 41.7631 21C41.7631 15.3647 41.7396 14.6574 41.639 12.4448C41.5383 10.2356 41.1878 8.72623 40.6746 7.40796C40.143 6.04354 39.4334 4.88696 38.2796 3.73204C37.1258 2.57712 35.9667 1.86827 34.6032 1.33853C33.2816 0.825569 31.772 0.473632 29.5633 0.374692C27.3494 0.274091 26.6416 0.249023 21.0029 0.249023C15.3642 0.249023 14.6559 0.272431 12.4409 0.374692Z" fill="url(#paint1_radial_1824_15)"/>
<defs>
<radialGradient id="paint0_radial_1824_15" cx="0" cy="0" r="1" gradientUnits="userSpaceOnUse" gradientTransform="translate(5.75489 41.9471) scale(54.2099 54.1774)">
<stop offset="0.09" stop-color="#FA8F21"/>
<stop offset="0.78" stop-color="#D82D7E"/>
</radialGradient>
<radialGradient id="paint1_radial_1824_15" cx="0" cy="0" r="1" gradientUnits="userSpaceOnUse" gradientTransform="translate(25.422 43.8064) scale(42.7249 42.6993)">
<stop offset="0.64" stop-color="#8C3AAA" stop-opacity="0"/>
<stop offset="1" stop-color="#8C3AAA"/>
</radialGradient>
</defs>
</svg>
