<svg width="40" height="40" viewBox="0 0 40 40" fill="none" xmlns="http://www.w3.org/2000/svg">
<path d="M0.28418 3.06317C0.28418 1.52925 1.56835 0.28418 3.15136 0.28418H36.2119C37.7955 0.28418 39.0791 1.52925 39.0791 3.06317V36.3005C39.0791 37.8349 37.7955 39.0791 36.2119 39.0791H3.15136C1.5685 39.0791 0.28418 37.8351 0.28418 36.301V3.06271V3.06317Z" fill="#006699"/>
<path d="M12.0733 32.7507V15.2851H6.26796V32.7507H12.0739H12.0733ZM9.17182 12.9009C11.1958 12.9009 12.4559 11.5598 12.4559 9.88369C12.418 8.16944 11.1958 6.86572 9.21031 6.86572C7.22344 6.86572 5.92578 8.16944 5.92578 9.88354C5.92578 11.5596 7.1854 12.9008 9.13378 12.9008H9.17137L9.17182 12.9009ZM15.2866 32.7507H21.0914V22.9982C21.0914 22.4769 21.1293 21.9542 21.2826 21.5819C21.7021 20.5385 22.6573 19.4585 24.2614 19.4585C26.3614 19.4585 27.2021 21.06 27.2021 23.4081V32.7507H33.0067V22.7365C33.0067 17.372 30.1432 14.8757 26.3239 14.8757C23.1925 14.8757 21.8173 16.6258 21.0532 17.8179H21.0919V15.2857H15.2869C15.3626 16.9242 15.2864 32.7513 15.2864 32.7513L15.2866 32.7507Z" fill="white"/>
</svg>
