<svg width="42" height="30" viewBox="0 0 42 30" fill="none" xmlns="http://www.w3.org/2000/svg">
<path d="M41.0256 5.09682C40.5555 3.32955 39.1648 1.93537 37.3955 1.45755C34.1964 0.600098 21.3608 0.600098 21.3608 0.600098C21.3608 0.600098 8.53174 0.600098 5.3261 1.45755C3.56333 1.92883 2.17269 3.32301 1.69609 5.09682C0.84082 8.3041 0.84082 15.0001 0.84082 15.0001C0.84082 15.0001 0.84082 21.6961 1.69609 24.9034C2.16617 26.6706 3.5568 28.0648 5.3261 28.5426C8.53174 29.4001 21.3608 29.4001 21.3608 29.4001C21.3608 29.4001 34.1964 29.4001 37.3955 28.5426C39.1583 28.0714 40.549 26.6772 41.0256 24.9034C41.8808 21.6961 41.8808 15.0001 41.8808 15.0001C41.8808 15.0001 41.8808 8.3041 41.0256 5.09682Z" fill="#FF3000"/>
<path d="M17.2607 21.1725L27.9223 15.0001L17.2607 8.82773V21.1725Z" fill="white"/>
</svg>
